<svg width="199" height="24" viewBox="0 0 199 24" fill="none" xmlns="http://www.w3.org/2000/svg">
<path d="M12.4995 0.0371094C10.0921 0.0371094 7.93784 0.552206 6.03766 1.56843C4.13764 2.58466 2.65797 4.00426 1.59592 5.82451C0.533703 7.64476 -0.00012207 9.7114 -0.00012207 12.0342C-0.00012207 14.3571 0.533703 16.4243 1.59592 18.2335C2.65797 20.0425 4.13764 21.4522 6.03766 22.4684C7.93784 23.4846 10.0921 23.9997 12.4995 23.9997C15.45 23.9997 17.9768 23.266 20.0775 21.8031C21.4006 20.8815 22.4094 19.7114 23.18 18.3602L18.5263 15.7834H17.6333C17.1377 16.7661 16.4327 17.5191 15.524 18.0329C14.6153 18.5465 13.5892 18.8037 12.4327 18.8037C10.5679 18.8037 9.04688 18.1841 7.89035 16.9556C6.73381 15.7272 6.16047 14.0892 6.16047 12.0342C6.16047 9.97946 6.73381 8.3414 7.89035 7.11297C9.04688 5.88454 10.5679 5.26479 12.4327 5.26479C13.5892 5.26479 14.6153 5.5221 15.524 6.03575C15.9895 6.29884 16.3945 6.63174 16.7518 7.01794L22.0864 4.13476C21.4995 3.44197 20.8554 2.80087 20.0775 2.25496C17.9768 0.78094 15.45 0.0371094 12.4995 0.0371094Z" fill="#0D6EFD"/>
<path d="M39.9376 -0.000488281C37.7337 -0.000488281 35.7112 0.512059 33.8747 1.53556C32.0383 2.55921 30.5757 3.98283 29.496 5.80738C28.4164 7.63208 27.875 9.69171 27.875 11.9837C27.875 14.2757 28.4164 16.3347 29.496 18.1704C30.5757 20.0063 32.0383 21.4397 33.8747 22.4634C35.7112 23.4869 37.7338 23.9994 39.9376 23.9994C42.1414 23.9994 44.154 23.4869 45.9794 22.4634C47.8048 21.4397 49.2475 20.0062 50.3161 18.1704C51.3844 16.3347 51.9159 14.2757 51.9159 11.9837C51.9159 9.69171 51.3945 7.63208 50.337 5.80738C49.2797 3.98283 47.8264 2.55921 45.9899 1.53556C44.1533 0.512059 42.1414 -0.000488281 39.9376 -0.000488281ZM39.9376 5.17617C41.8075 5.17617 43.2974 5.79299 44.4216 7.0279C45.5457 8.26298 46.1056 9.91416 46.1056 11.9837C46.1056 14.0309 45.5457 15.6723 44.4216 16.9184C43.2974 18.1645 41.8075 18.7912 39.9376 18.7912C38.0453 18.7912 36.5357 18.1744 35.4115 16.9394C34.2873 15.7044 33.7168 14.0531 33.7168 11.9837C33.7168 9.89193 34.2873 8.23083 35.4115 7.00695C36.5357 5.78307 38.0455 5.17617 39.9376 5.17617Z" fill="#0D6EFD"/>
<path d="M56.6122 12.23V23.9984H62.317L62.3623 20.1875L56.6122 12.23Z" fill="#0D6EFD"/>
<path d="M56.6124 0.566895V2.36601L70.8591 23.9988H77.5797V23.9776L62.1067 0.566895H56.6124Z" fill="#0D6EFD"/>
<path fill-rule="evenodd" clip-rule="evenodd" d="M56.6113 0.566703C56.6113 0.566135 56.6117 0.565674 56.6123 0.565674H62.1082L62.1075 0.566136L77.5808 23.9774H77.5806V23.9986C77.5806 23.9991 77.5802 23.9996 77.5796 23.9996H70.8575L70.8582 23.9991L56.6111 2.36582H56.6113V0.566703ZM56.6133 0.567733V2.36551L70.8596 23.9975H77.5786V23.9778L62.1061 0.567733H56.6133Z" fill="#0D6EFD"/>
<path d="M71.8744 0.56665V5.42763L77.5794 14.0555V0.56665H71.8744Z" fill="#0D6EFD"/>
<path d="M94.064 0.125977C91.7934 0.125977 89.7616 0.639166 87.9696 1.65163C86.1776 2.66409 84.7821 4.07844 83.7803 5.89195C82.7786 7.70546 82.2751 9.76445 82.2751 12.0787C82.2751 14.3929 82.7786 16.4525 83.7803 18.255C84.7821 20.0573 86.1776 21.4617 87.9696 22.4742C89.7616 23.4867 91.7934 23.9999 94.064 23.9999C96.8466 23.9999 99.2297 23.2689 101.211 21.8113C101.945 21.2716 102.563 20.6262 103.116 19.9385L98.127 17.0134C97.7792 17.4228 97.3766 17.7802 96.9165 18.0551C96.0595 18.5668 95.0916 18.823 94.0008 18.823C92.2423 18.823 90.8181 18.2057 89.7273 16.9819C88.6366 15.758 88.0853 14.126 88.0853 12.0787C88.0853 10.0315 88.6366 8.39952 89.7273 7.17564C90.8181 5.95176 92.2423 5.3343 94.0008 5.3343C95.0916 5.3343 96.0595 5.59066 96.9165 6.10241C97.5054 6.45407 97.9747 6.96102 98.3796 7.53338L103.464 4.63992C102.84 3.76835 102.098 2.99305 101.211 2.33561C99.2297 0.867053 96.8466 0.125977 94.064 0.125977Z" fill="#0D6EFD"/>
<path d="M108.158 9.59668V14.4119H124.663V9.59668H108.158Z" fill="#0D6EFD"/>
<path d="M108.158 0.0627441V4.87798H124.663V0.0627441H108.158Z" fill="#0D6EFD"/>
<path d="M108.158 19.1843V23.9997H124.663V19.1843H108.158Z" fill="#0D6EFD"/>
<path d="M129.358 0.567871V5.17633H135.063V5.16593H138.168C139.259 5.16593 140.076 5.42213 140.61 5.93388C141.144 6.44579 141.41 7.17743 141.41 8.11201C141.41 9.04659 141.144 9.76768 140.61 10.2794C140.076 10.7912 139.259 11.0475 138.168 11.0475H137.505H129.358V23.9997H135.063V15.5824H138.61C140.524 15.5824 142.119 15.241 143.41 14.5512C144.701 13.8613 145.66 12.9498 146.283 11.8262C146.907 10.7024 147.22 9.46926 147.22 8.11201C147.22 6.64329 146.897 5.33273 146.252 4.19793C145.606 3.06297 144.638 2.18116 143.347 1.53588C142.055 0.890594 140.48 0.567871 138.61 0.567871H129.358Z" fill="#0D6EFD"/>
<path d="M151.915 0.567871V5.13427H158.125V23.9997H163.83V5.13427H170.04V0.567871H151.915Z" fill="#0D6EFD"/>
<path d="M186.787 -0.000244141C184.582 -0.000244141 182.571 0.512304 180.734 1.5358C178.898 2.55946 177.436 3.98308 176.356 5.80762C175.276 7.63233 174.735 9.69196 174.735 11.984C174.735 14.2759 175.276 16.3349 176.356 18.1707C177.436 20.0066 178.898 21.4399 180.734 22.4636C182.571 23.4871 184.582 23.9997 186.787 23.9997C188.99 23.9997 191.013 23.4871 192.839 22.4636C194.664 21.4399 196.107 20.0064 197.176 18.1707C198.245 16.3349 198.776 14.2759 198.776 11.984C198.776 9.69196 198.254 7.63233 197.197 5.80762C196.139 3.98308 194.687 2.55946 192.85 1.5358C191.013 0.512304 188.99 -0.000244141 186.787 -0.000244141ZM186.787 5.17641C188.657 5.17641 190.158 5.79323 191.281 7.02815C192.405 8.26322 192.965 9.91441 192.965 11.984C192.965 14.0311 192.405 15.6725 191.281 16.9187C190.158 18.1648 188.657 18.7915 186.787 18.7915C184.894 18.7915 183.395 18.1747 182.27 16.9396C181.147 15.7047 180.576 14.0533 180.576 11.984C180.576 9.89218 181.147 8.23107 182.27 7.00719C183.395 5.78332 184.894 5.17641 186.787 5.17641Z" fill="#0D6EFD"/>
</svg>
